<svg id="visual" viewBox="0 0 960 300" width="960" height="300" xmlns="http://www.w3.org/2000/svg" xmlns:xlink="http://www.w3.org/1999/xlink" version="1.1"><rect x="0" y="0" width="960" height="300" fill="#ffecbc"></rect><path d="M0 177L320 185L640 160L960 164L960 301L640 301L320 301L0 301Z" fill="#ffd386"></path><path d="M0 187L320 199L640 200L960 185L960 301L640 301L320 301L0 301Z" fill="#eab464"></path><path d="M0 217L320 233L640 213L960 223L960 301L640 301L320 301L0 301Z" fill="#d69544"></path><path d="M0 241L320 248L640 256L960 236L960 301L640 301L320 301L0 301Z" fill="#c27625"></path><path d="M0 277L320 263L640 267L960 273L960 301L640 301L320 301L0 301Z" fill="#ad5700"></path></svg>